<?xml version="1.0" encoding="utf-8"?>
<!-- Generator: Adobe Illustrator 19.1.0, SVG Export Plug-In . SVG Version: 6.00 Build 0)  -->
<svg version="1.1" id="Layer_1" xmlns="http://www.w3.org/2000/svg" xmlns:xlink="http://www.w3.org/1999/xlink" x="0px" y="0px"
	 viewBox="121.1 744.5 389.8 52.2" style="enable-background:new 121.1 744.5 389.8 52.2;" xml:space="preserve">
<style type="text/css">
	.st0{fill:#14355C;}
	.st1{fill:#98C93F;}
</style>
<polygon class="st0" points="156.1,762.5 171.6,762.5 170.5,765.5 159.7,765.5 159.7,776.6 170.3,776.6 170.3,779.6 159.7,779.6 
	159.7,791.5 171.9,791.5 171.9,794.5 156.1,794.5 "/>
<path class="st0" d="M307.7,781.3h-7.6l-1.1-3h12.2v14.2c-2.1,1.1-6,2.4-10.5,2.4c-9.5,0-15.8-6.7-15.8-16c0-9.8,6.6-16.7,16.5-16.7
	c3.7,0,6.8,0.9,8.7,1.7v3.4c-2.3-1.2-5.1-2-8.5-2c-8.3,0-12.9,5.5-12.9,13.3c0,8.2,4.9,13.3,12.4,13.3c2.7,0,5-0.6,6.5-1.3
	L307.7,781.3L307.7,781.3z"/>
<path class="st0" d="M264.4,762.4h2.4l12.3,32.1h-3.8l-3.2-8.6h-12.8l-3.2,8.6h-3.8L264.4,762.4z M270.9,782.9l-3.4-9.2
	c-1-2.8-1.5-4.3-1.9-5.5h-0.1c-0.3,1.2-0.9,2.7-1.9,5.5l-3.3,9.2H270.9z"/>
<path class="st0" d="M242.2,781.3h-7.6l-1.1-3h12.2v14.2c-2.1,1.1-6,2.4-10.5,2.4c-9.5,0-15.8-6.7-15.8-16c0-9.8,6.6-16.7,16.5-16.7
	c3.7,0,6.8,0.9,8.7,1.7v3.4c-2.3-1.2-5.1-2-8.5-2c-8.3,0-12.9,5.5-12.9,13.3c0,8.2,4.9,13.3,12.4,13.3c2.7,0,5.1-0.6,6.5-1.3v-9.3
	H242.2z"/>
<path class="st0" d="M183.7,762.5h3.4l14.9,19.4c2,2.7,3.5,4.9,4.6,6.5h0.1c0-1.7-0.1-3.2-0.1-5.6v-20.3h3.6v32h-3l-15.4-20.2
	c-1.9-2.5-3.4-4.6-4.5-6.2h-0.1c0.1,1.6,0.1,3,0.1,5.5v20.9h-3.6L183.7,762.5L183.7,762.5z"/>
<polygon class="st0" points="321.8,762.5 337.3,762.5 336.2,765.5 325.4,765.5 325.4,776.6 336,776.6 336,779.6 325.4,779.6 
	325.4,791.5 337.6,791.5 337.6,794.5 321.8,794.5 "/>
<path class="st0" d="M145.3,792.7c-3,1.6-6,2.2-8.9,2.2c-9.6,0-15.2-6.7-15.2-16.1c0-9.3,6.4-16.7,15.9-16.7c3.4,0,6.3,0.8,7.9,1.7
	v3.4c-2.2-1.2-4.6-2-7.9-2c-7.5,0-12.1,5.7-12.1,13.3c0,7.8,4.5,13.3,11.8,13.3c3,0,5.4-0.8,7.6-2L145.3,792.7z"/>
<path id="XMLID_92_" class="st1" d="M347,746.5h11.9v19.4h0.1c3-3.8,7-5.2,11.7-5.2c9.5,0,14.6,9,14.6,17.3
	c0,10.1-5.4,18.5-15.6,18.5c-5.4,0-10.2-3.1-11.7-6.9h-0.1v6.1H347V746.5z M366,769.8c-4.3,0-7.2,3.8-7.2,8.9c0,5,3.3,8.7,7.2,8.7
	c4.5,0,7.2-3.7,7.2-9.2C373.2,773.8,370.6,769.8,366,769.8z"/>
<path id="XMLID_90_" class="st1" d="M414.2,771c-1.3-0.4-2.6-0.4-4-0.4c-5.5,0-8.6,4-8.6,10.7v14.4h-11.8v-34.1h10.8v6.3h0.1
	c2-4.3,5-7.1,10.1-7.1c1.4,0,2.8,0.2,4,0.4L414.2,771z"/>
<path id="XMLID_87_" class="st1" d="M439.4,795.7c-0.1-1.8-0.3-3.6-0.3-5.4H439c-2.7,4.3-6,6.2-10.8,6.2c-6.8,0-12.8-3.3-12.8-10.8
	c0-10.4,11.4-11.7,17.7-11.7c1.9,0,4,0.2,5.5,0.5c-0.1-4.7-3.5-5.9-7.8-5.9c-3.8,0-7.6,0.7-10.9,2.6l-0.2-8
	c4.2-1.7,8.6-2.4,13.6-2.4c8.7,0,16.3,3.7,16.3,14.2v12.7c0,2.7,0.1,5.4,0.7,8.1L439.4,795.7L439.4,795.7z M431.3,788.7
	c4.5,0,7.3-4.1,7.3-8.1c-1.5-0.1-3.2-0.2-5-0.2c-4,0-7.2,1.2-7.2,4.5C426.4,787.3,428.5,788.7,431.3,788.7z"/>
<path id="XMLID_85_" class="st1" d="M474.3,761.6h10.8v6.3h0.1c2.4-4.9,7.1-7.1,12.5-7.1c9.3,0,13.1,6.6,13.1,13.6v21.3H499v-16.5
	c0-6.4-2.2-8.6-5.4-8.6c-4.9,0-7.3,3.3-7.3,10.7v14.4h-11.8v-34.1H474.3z"/>
<path class="st1" d="M455.9,761.6h11.8v34.2h-11.8V761.6z"/>
<circle class="st1" cx="461.8" cy="750.3" r="5.7"/>
</svg>
