<?xml version="1.0" encoding="utf-8"?>
<!-- Generator: Adobe Illustrator 19.1.0, SVG Export Plug-In . SVG Version: 6.00 Build 0)  -->
<svg version="1.1" id="Layer_1" xmlns="http://www.w3.org/2000/svg" xmlns:xlink="http://www.w3.org/1999/xlink" x="0px" y="0px"
	 viewBox="0 0 529.1 130.6" style="enable-background:new 0 0 529.1 130.6;" xml:space="preserve">
<style type="text/css">
	.st0{fill-rule:evenodd;clip-rule:evenodd;fill:#F47920;}
	.st1{fill:#010101;}
</style>
<path class="st0" d="M389.7,100.6c8.5,0,16.1-4.3,20.8-10.1c0.1,2.2,0.6,6.5,1,8.4H422c-0.9-3.3-1.6-8.8-1.6-15.7V50.8
	c0-15.7-8.5-22.9-23.6-22.9c-9.6,0-17.6,3.2-24.4,9.5l5.6,7.4c6.2-5.5,11.7-7.5,18-7.5c9.5,0,13.8,4.2,13.8,14.4v6.5h-3
	c-16.7,0-36.9,5.5-36.9,23.8C370,93.2,378.2,100.6,389.7,100.6z M406.8,66h3v15.6c-4.5,5.9-10.7,9.9-18.4,9.9
	c-4.2,0-10.2-2.6-10.2-9.8C381.2,70,392,66,406.8,66z"/>
<path class="st0" d="M454,130.5V94.6c2.6,2.3,7.8,6.1,17.6,6.1c17.9,0,30.6-14.7,30.6-36.5c0-22.9-11.2-36.2-28.1-36.2
	c-9.9,0-16.4,4.9-20,9.2v-7.5h-10.5v100.8H454z M471.9,37.4c13.1,0,19,11.6,19,27c0,15.6-7.1,27.1-20.3,27.1
	c-8.5,0-13.4-3.5-16.6-6.3V47.1C455.9,44.5,462.3,37.4,471.9,37.4z"/>
<path class="st0" d="M262.9,37c-13.1,0-20.3,11.5-20.3,27.1c0,15.7,5.6,27,19.4,27c6.2,0,13-3.5,17.4-9.5V43.3
	C275.1,39.3,269.9,37,262.9,37z M259.8,100.6c-16.6,0-28.5-13.1-28.5-36.2c0-21.9,13.1-36.5,30.6-36.5c7.2,0,13.1,2,17.6,6V2.8H290
	v81.9c0,4.8,0.9,10.5,1.7,14.1h-10.5c-0.5-1.4-1.2-5.3-1.3-7.9C275.1,96.8,268.2,100.6,259.8,100.6z"/>
<path class="st0" d="M131.2,16.6c-4.3,0-7.8-3.5-7.8-7.8c0-4.3,3.5-7.8,7.8-7.8c4.3,0,7.8,3.4,7.8,7.8
	C139,13.2,135.5,16.6,131.2,16.6z"/>
<path class="st0" d="M107.2,98.9H95.9L87.6,36C86.8,29,86.3,25.5,86,22.6h-0.3c-1,3.3-2.2,7.2-4.3,13.3l-22.8,63H47.9l-23.3-63
	c-2.3-6.2-3.5-9.9-4.6-13.3h-0.3c-0.3,3.5-0.7,7.2-1.4,13.7l-7.6,62.6H0L13.1,2.8h10.5l23.8,65.3c2.9,8.1,4.3,12.3,6,17.7h0.3
	c1.6-5.2,3.2-9.8,6.1-17.7L83.6,2.8h10.7L107.2,98.9z"/>
<rect x="125.8" y="29.6" class="st0" width="10.7" height="69.2"/>
<path class="st0" d="M214.2,98.9h-10.5V51.6c0-8.7-3-14.1-12.2-14.1c-7.8,0-15.1,5.9-20,12.7v48.7h-10.5V29.6h10.5v9.9
	c6.2-7.8,14-11.7,22.5-11.7c14.5,0,20.3,9.6,20.3,21.6V98.9z"/>
<polygon class="st0" points="342.1,98.8 342.1,12.4 369.4,12.4 369.4,2.8 303.4,2.8 303.4,12.4 330.8,12.4 330.8,98.8 "/>
<path class="st1" d="M506.6,39c0-2,0.5-3.8,1.5-5.5s2.3-3.1,4-4s3.5-1.5,5.5-1.5c2,0,3.8,0.5,5.5,1.5s3.1,2.3,4,4s1.5,3.5,1.5,5.5
	c0,1.9-0.5,3.7-1.4,5.4s-2.3,3-4,4.1s-3.6,1.5-5.6,1.5c-2,0-3.9-0.5-5.6-1.5s-3-2.4-4-4.1C507.1,42.8,506.6,41,506.6,39z M508.2,39
	c0,1.7,0.4,3.3,1.3,4.7s2,2.6,3.5,3.5s3,1.3,4.7,1.3c1.7,0,3.3-0.4,4.7-1.3s2.6-2,3.5-3.4s1.3-3,1.3-4.8c0-1.7-0.4-3.3-1.3-4.7
	s-2-2.6-3.4-3.5c-1.5-0.9-3-1.3-4.8-1.3c-1.7,0-3.3,0.4-4.7,1.3s-2.6,2-3.5,3.4C508.6,35.7,508.2,37.3,508.2,39z M522.1,36.4
	c0,0.8-0.2,1.5-0.6,2.1c-0.4,0.6-1,1-1.8,1.3l3.5,5.8h-2.5l-3-5.2h-2v5.2h-2.2V32.5h3.8c1.6,0,2.8,0.3,3.6,1S522.1,35.1,522.1,36.4z
	 M515.8,38.6h1.6c0.8,0,1.4-0.2,1.9-0.6s0.7-0.9,0.7-1.5c0-0.7-0.2-1.3-0.6-1.6s-1.1-0.5-2-0.5h-1.6V38.6z"/>
</svg>
